<svg width="44" height="44" viewBox="0 0 44 44" fill="none" xmlns="http://www.w3.org/2000/svg">
<path fill-rule="evenodd" clip-rule="evenodd" d="M2.23438 12.0742V7.13281C2.23438 4.4318 4.43184 2.23438 7.13281 2.23438H12.0742C12.6912 2.23438 13.1914 1.73418 13.1914 1.11719C13.1914 0.500199 12.6912 0 12.0742 0H7.13281C3.1998 0 0 3.19975 0 7.13281V12.0742C0 12.6912 0.500199 13.1914 1.11719 13.1914C1.73418 13.1914 2.23438 12.6912 2.23438 12.0742ZM12.0742 41.7656C12.6912 41.7656 13.1914 42.2658 13.1914 42.8828C13.1914 43.4998 12.6912 44 12.0742 44H7.13281C3.1998 44 0 40.8002 0 36.8672V31.9258C0 31.3088 0.500199 30.8086 1.11719 30.8086C1.73418 30.8086 2.23438 31.3088 2.23438 31.9258V36.8672C2.23438 39.5682 4.43184 41.7656 7.13281 41.7656H12.0742ZM44 31.9258V36.8672C44 40.8002 40.8002 44 36.8672 44H31.9258C31.3088 44 30.8086 43.4998 30.8086 42.8828C30.8086 42.2658 31.3088 41.7656 31.9258 41.7656H36.8672C39.5682 41.7656 41.7656 39.5682 41.7656 36.8672V31.9258C41.7656 31.3088 42.2658 30.8086 42.8828 30.8086C43.4998 30.8086 44 31.3088 44 31.9258ZM44 7.13281V12.0742C44 12.6912 43.4998 13.1914 42.8828 13.1914C42.2658 13.1914 41.7656 12.6912 41.7656 12.0742V7.13281C41.7656 4.4318 39.5682 2.23438 36.8672 2.23438H31.9258C31.3088 2.23438 30.8086 1.73418 30.8086 1.11719C30.8086 0.500199 31.3088 0 31.9258 0H36.8672C40.8002 0 44 3.19975 44 7.13281ZM29.7097 32.5202C30.1804 32.0855 30.2095 31.3515 29.7748 30.8808C29.34 30.4101 28.606 30.381 28.1353 30.8157C26.4605 32.3628 24.2816 33.2148 21.9999 33.2148C19.7182 33.2148 17.5393 32.3628 15.8645 30.8157C15.3937 30.381 14.6599 30.4101 14.2251 30.8808C13.7903 31.3515 13.8194 32.0855 14.2901 32.5202C16.3949 34.4644 19.1329 35.5351 21.9999 35.5351C24.8669 35.5351 27.6049 34.4644 29.7097 32.5202ZM24.3203 16.5859V24.8359C24.3203 26.4708 22.9903 27.8008 21.3555 27.8008H20.4102C19.7694 27.8008 19.25 27.2814 19.25 26.6406C19.25 25.9999 19.7694 25.4805 20.4102 25.4805H21.3555C21.7109 25.4805 22 25.1913 22 24.8359V16.5859C22 15.9452 22.5194 15.4258 23.1602 15.4258C23.8009 15.4258 24.3203 15.9452 24.3203 16.5859ZM32.3125 19.8301V16.5215C32.3125 15.9164 31.8219 15.4258 31.2168 15.4258C30.6117 15.4258 30.1211 15.9164 30.1211 16.5215V19.8301C30.1211 20.4352 30.6117 20.9258 31.2168 20.9258C31.8219 20.9258 32.3125 20.4352 32.3125 19.8301ZM11.9453 19.8301C11.9453 20.4352 12.4359 20.9258 13.041 20.9258C13.6461 20.9258 14.1367 20.4352 14.1367 19.8301V16.5215C14.1367 15.9164 13.6461 15.4258 13.041 15.4258C12.4359 15.4258 11.9453 15.9164 11.9453 16.5215V19.8301Z" fill="white"/>
</svg>
