<svg width="25" height="24" viewBox="0 0 25 24" fill="none" xmlns="http://www.w3.org/2000/svg">
<path d="M3.26696 15.8197L3.98025 15.5879L3.98025 15.5879L3.26696 15.8197ZM2.15645 9.65157L2.87776 9.85703L2.15645 9.65157ZM6.79367 4.96556L6.35283 4.3588L6.35283 4.3588L6.79367 4.96556ZM2.26974 9.30291L2.97405 9.56067L2.26974 9.30291ZM6.29064 21.678L5.87234 22.3005L5.87234 22.3005L6.29064 21.678ZM5.99405 21.4625L5.53126 22.0527L5.53126 22.0527L5.99405 21.4625ZM21.7331 15.8197L21.0198 15.5879L21.7331 15.8197ZM19.006 21.4625L19.4687 22.0527L19.4687 22.0527L19.006 21.4625ZM18.7094 21.678L19.1277 22.3005L19.1277 22.3005L18.7094 21.678ZM18.2063 4.96556L18.6472 4.3588L18.6472 4.3588L18.2063 4.96556ZM22.7303 9.30291L22.026 9.56067L22.7303 9.30291ZM22.8436 9.65157L22.1222 9.85703L22.8436 9.65157ZM12.6833 2.00336L12.6558 2.75286L12.6833 2.00336ZM12.3167 2.00336L12.3442 2.75286L12.3167 2.00336ZM3.98025 15.5879C3.46589 14.0049 3.0995 12.874 2.90725 11.9558C2.71861 11.055 2.71454 10.4301 2.87776 9.85703L1.43514 9.44611C1.18092 10.3386 1.22278 11.2303 1.43909 12.2633C1.6518 13.2791 2.04938 14.4994 2.55366 16.0514L3.98025 15.5879ZM6.35283 4.3588C5.03261 5.31799 3.99365 6.07158 3.2245 6.76835C2.44232 7.47693 1.88435 8.17368 1.56542 9.04515L2.97405 9.56067C3.17883 9.00112 3.54942 8.49798 4.23157 7.88002C4.92676 7.25026 5.88791 6.55068 7.23451 5.57232L6.35283 4.3588ZM2.87776 9.85703C2.90622 9.7571 2.93834 9.65824 2.97405 9.56067L1.56542 9.04515C1.51711 9.17717 1.47365 9.31091 1.43514 9.44611L2.87776 9.85703ZM12.5 21.7779C10.8355 21.7779 9.64673 21.7768 8.71414 21.676C7.79905 21.577 7.20349 21.3878 6.70894 21.0555L5.87234 22.3005C6.6426 22.8181 7.50355 23.0538 8.55284 23.1673C9.58464 23.2789 10.8681 23.2779 12.5 23.2779V21.7779ZM2.55366 16.0514C3.05794 17.6034 3.45359 18.8244 3.87858 19.7712C4.31077 20.7341 4.801 21.4801 5.53126 22.0527L6.45684 20.8723C5.98796 20.5046 5.62396 19.9967 5.24704 19.157C4.86292 18.3012 4.4946 17.1709 3.98025 15.5879L2.55366 16.0514ZM6.70894 21.0555C6.62269 20.9975 6.5386 20.9364 6.45684 20.8723L5.53126 22.0527C5.64189 22.1394 5.75566 22.2221 5.87234 22.3005L6.70894 21.0555ZM21.0198 15.5879C20.5054 17.1709 20.1371 18.3012 19.753 19.157C19.3761 19.9967 19.0121 20.5046 18.5432 20.8723L19.4687 22.0527C20.199 21.4801 20.6892 20.7341 21.1214 19.7712C21.5464 18.8244 21.9421 17.6034 22.4463 16.0514L21.0198 15.5879ZM12.5 23.2779C14.1319 23.2779 15.4154 23.2789 16.4472 23.1673C17.4965 23.0538 18.3574 22.8181 19.1277 22.3005L18.2911 21.0555C17.7965 21.3878 17.201 21.577 16.2859 21.676C15.3533 21.7768 14.1645 21.7779 12.5 21.7779V23.2779ZM18.5432 20.8723C18.4614 20.9364 18.3773 20.9975 18.2911 21.0555L19.1277 22.3005C19.2444 22.2221 19.3581 22.1394 19.4687 22.0527L18.5432 20.8723ZM17.7655 5.57232C19.1121 6.55068 20.0733 7.25026 20.7684 7.88002C21.4506 8.49798 21.8212 9.00112 22.026 9.56067L23.4346 9.04515C23.1157 8.17368 22.5577 7.47693 21.7755 6.76835C21.0064 6.07158 19.9674 5.31799 18.6472 4.3588L17.7655 5.57232ZM22.4463 16.0514C22.9506 14.4994 23.3482 13.2791 23.5609 12.2633C23.7772 11.2303 23.8191 10.3386 23.5649 9.44611L22.1222 9.85703C22.2855 10.4301 22.2814 11.055 22.0928 11.9558C21.9005 12.874 21.5341 14.0049 21.0198 15.5879L22.4463 16.0514ZM22.026 9.56067C22.0617 9.65824 22.0938 9.75709 22.1222 9.85703L23.5649 9.44611C23.5264 9.31091 23.4829 9.17717 23.4346 9.04515L22.026 9.56067ZM18.6472 4.3588C17.327 3.3996 16.2892 2.64436 15.3889 2.12818C14.4733 1.60323 13.6382 1.28789 12.7108 1.25387L12.6558 2.75286C13.2512 2.7747 13.8443 2.97167 14.6428 3.42948C15.4566 3.89603 16.4189 4.59396 17.7655 5.57232L18.6472 4.3588ZM7.23451 5.57232C8.5811 4.59396 9.54345 3.89603 10.3572 3.42948C11.1557 2.97167 11.7488 2.7747 12.3442 2.75286L12.2892 1.25387C11.3618 1.28789 10.5268 1.60323 9.61115 2.12818C8.71081 2.64436 7.67305 3.3996 6.35283 4.3588L7.23451 5.57232ZM12.7108 1.25387C12.5703 1.24871 12.4297 1.24871 12.2892 1.25387L12.3442 2.75286C12.448 2.74905 12.552 2.74905 12.6558 2.75286L12.7108 1.25387Z" fill="black"/>
<path d="M10.5 17.0697C10.0858 17.0697 9.75 17.4055 9.75 17.8197C9.75 18.2339 10.0858 18.5697 10.5 18.5697V17.0697ZM14.5 18.5697C14.9142 18.5697 15.25 18.2339 15.25 17.8197C15.25 17.4055 14.9142 17.0697 14.5 17.0697V18.5697ZM10.5 18.5697H14.5V17.0697H10.5V18.5697Z" fill="black"/>
</svg>
