<svg width="32" height="28" viewBox="0 0 32 28" fill="none" xmlns="http://www.w3.org/2000/svg">
<path d="M24.8456 9.55434L24.6381 9.76294C25.3172 11.0735 25.656 12.5298 25.6546 14.1316C25.6637 15.7722 25.2458 17.3866 24.4425 18.8148C23.6366 20.2608 22.5462 21.3781 21.1714 22.1667C19.8211 22.9417 18.3437 23.3345 16.7392 23.3451C16.7077 23.3451 16.6735 23.3451 16.642 23.3451C16.0801 23.346 15.5193 23.2974 14.9659 23.1998C14.0062 23.0313 13.0813 22.7027 12.2293 22.2278C12.1902 22.2082 12.1538 22.1858 12.1147 22.1639C11.7895 21.9788 11.477 21.7721 11.1792 21.5452L23.9764 8.68497L26.739 5.90924L27.8995 4.74281L31.5422 1.0786L31.4542 0.987946H16.6517H16.5757C12.8016 1.0076 9.67534 2.39502 7.19685 5.15018C4.92989 7.6669 3.79622 10.639 3.79586 14.0666C3.79586 16.3481 4.31869 18.4396 5.36434 20.3411L8.22096 17.4714C7.82433 16.4033 7.62405 15.2717 7.62986 14.1316C7.62949 11.5333 8.51469 9.31916 10.2855 7.48906C12.0399 5.67715 14.1368 4.7621 16.5762 4.7439H16.642C17.9024 4.7439 19.075 4.98691 20.1598 5.47292C20.5485 5.64686 20.9234 5.8506 21.2811 6.08235L8.76044 18.6646L6.02172 21.418L2.86303 24.5934L0.457886 27.012H16.7392C20.464 26.9913 23.5147 25.6989 25.8915 23.1349C28.2852 20.5501 29.483 17.5284 29.4848 14.0699C29.4848 11.4123 28.8089 9.03119 27.4572 6.92659L24.8456 9.55434Z" fill="white"/>
</svg>
