<svg width="26" height="26" viewBox="0 0 26 26" fill="none" xmlns="http://www.w3.org/2000/svg">
<path d="M6.5 9.75C7.36195 9.75 8.1886 9.40759 8.7981 8.7981C9.40759 8.1886 9.75 7.36195 9.75 6.5M6.5 9.75C5.63805 9.75 4.8114 9.40759 4.2019 8.7981C3.59241 8.1886 3.25 7.36195 3.25 6.5M6.5 9.75V13M9.75 6.5C9.75 5.63805 9.40759 4.8114 8.7981 4.2019C8.1886 3.59241 7.36195 3.25 6.5 3.25M9.75 6.5H13M6.5 3.25C5.63805 3.25 4.8114 3.59241 4.2019 4.2019C3.59241 4.8114 3.25 5.63805 3.25 6.5M6.5 3.25V0M3.25 6.5H0M2.16667 2.16667L4.33333 4.33333M8.66667 8.66667L10.8333 10.8333M10.8333 2.16667L8.66667 4.33333M4.33333 8.66667L2.16667 10.8333M19.5 13C20.362 13 21.1886 12.6576 21.7981 12.0481C22.4076 11.4386 22.75 10.612 22.75 9.75M19.5 13C18.638 13 17.8114 12.6576 17.2019 12.0481C16.5924 11.4386 16.25 10.612 16.25 9.75M19.5 13V16.25M22.75 9.75C22.75 8.88805 22.4076 8.0614 21.7981 7.4519C21.1886 6.84241 20.362 6.5 19.5 6.5M22.75 9.75H26M19.5 6.5C18.638 6.5 17.8114 6.84241 17.2019 7.4519C16.5924 8.0614 16.25 8.88805 16.25 9.75M19.5 6.5V3.25M16.25 9.75H13M15.1667 5.41667L17.3333 7.58333M21.6667 11.9167L23.8333 14.0833M23.8333 5.41667L21.6667 7.58333M17.3333 11.9167L15.1667 14.0833M9.75 22.75C10.612 22.75 11.4386 22.4076 12.0481 21.7981C12.6576 21.1886 13 20.362 13 19.5M9.75 22.75C8.88805 22.75 8.0614 22.4076 7.4519 21.7981C6.84241 21.1886 6.5 20.362 6.5 19.5M9.75 22.75V26M13 19.5C13 18.638 12.6576 17.8114 12.0481 17.2019C11.4386 16.5924 10.612 16.25 9.75 16.25M13 19.5H16.25M9.75 16.25C8.88805 16.25 8.0614 16.5924 7.4519 17.2019C6.84241 17.8114 6.5 18.638 6.5 19.5M9.75 16.25V13M6.5 19.5H3.25M5.41667 15.1667L7.58333 17.3333M11.9167 21.6667L14.0833 23.8333M14.0833 15.1667L11.9167 17.3333M7.58333 21.6667L5.41667 23.8333" stroke="white" stroke-width="2"/>
</svg>
