<svg width="25" height="24" viewBox="0 0 25 24" fill="none" xmlns="http://www.w3.org/2000/svg">
<path d="M6.43188 5.38642L6.28599 5.96842L6.43188 5.38642ZM9.80644 3.43812L9.22947 3.27346L9.80644 3.43812ZM3.73837 10.0517L4.16945 9.63438L3.73837 10.0517ZM3.73837 13.9483L3.30729 13.531H3.30729L3.73837 13.9483ZM6.43188 18.6136L6.57776 19.1956L6.43188 18.6136ZM9.80644 20.5619L9.22947 20.7266L9.80644 20.5619ZM15.1935 20.5619L15.7704 20.7266L15.1935 20.5619ZM18.568 18.6136L18.7139 18.0316L18.568 18.6136ZM21.2615 13.9483L20.8304 14.3657L21.2615 13.9483ZM21.2615 10.0517L20.8304 9.63438L21.2615 10.0517ZM18.568 5.38642L18.4221 4.80443L18.568 5.38642ZM15.1935 3.43812L15.7704 3.27346L15.1935 3.43812ZM6.28599 5.96842C8.06638 6.41469 9.87969 5.36777 10.3834 3.60278L9.22947 3.27346C8.90349 4.41571 7.72997 5.09324 6.57776 4.80443L6.28599 5.96842ZM4.16945 9.63438C2.62922 8.04343 4.13807 5.43001 6.28599 5.96842L6.57776 4.80443C3.25881 3.97249 0.927334 8.01072 3.30729 10.4691L4.16945 9.63438ZM4.16945 14.3657C5.44613 13.0469 5.44613 10.9531 4.16945 9.63438L3.30729 10.4691C4.13351 11.3225 4.13351 12.6775 3.30729 13.531L4.16945 14.3657ZM6.28599 18.0316C4.13807 18.57 2.62922 15.9566 4.16945 14.3657L3.30729 13.531C0.927334 15.9893 3.25881 20.0275 6.57776 19.1956L6.28599 18.0316ZM10.3834 20.3973C9.87969 18.6323 8.06638 17.5853 6.28599 18.0316L6.57776 19.1956C7.72997 18.9068 8.90349 19.5843 9.22947 20.7266L10.3834 20.3973ZM14.6165 20.3973C14.0088 22.5266 10.9911 22.5266 10.3834 20.3973L9.22947 20.7266C10.1685 24.0168 14.8314 24.0168 15.7704 20.7266L14.6165 20.3973ZM18.7139 18.0316C16.9335 17.5853 15.1202 18.6323 14.6165 20.3973L15.7704 20.7266C16.0964 19.5843 17.2699 18.9068 18.4221 19.1956L18.7139 18.0316ZM20.8304 14.3657C22.3707 15.9566 20.8618 18.57 18.7139 18.0316L18.4221 19.1956C21.7411 20.0275 24.0726 15.9893 21.6926 13.531L20.8304 14.3657ZM20.8304 9.63438C19.5538 10.9531 19.5538 13.0469 20.8304 14.3657L21.6926 13.531C20.8664 12.6775 20.8664 11.3225 21.6926 10.4691L20.8304 9.63438ZM18.7139 5.96842C20.8618 5.43001 22.3707 8.04343 20.8304 9.63438L21.6926 10.4691C24.0726 8.01072 21.7411 3.97249 18.4221 4.80443L18.7139 5.96842ZM14.6165 3.60278C15.1202 5.36777 16.9335 6.41469 18.7139 5.96842L18.4221 4.80443C17.2699 5.09324 16.0964 4.41571 15.7704 3.27346L14.6165 3.60278ZM15.7704 3.27346C14.8314 -0.0168056 10.1685 -0.0168046 9.22947 3.27346L10.3834 3.60278C10.9911 1.47342 14.0088 1.47342 14.6165 3.60278L15.7704 3.27346ZM8.89994 12C8.89994 13.9882 10.5117 15.6 12.4999 15.6V14.4C11.1745 14.4 10.0999 13.3255 10.0999 12H8.89994ZM12.4999 15.6C14.4882 15.6 16.0999 13.9882 16.0999 12H14.8999C14.8999 13.3255 13.8254 14.4 12.4999 14.4V15.6ZM16.0999 12C16.0999 10.0118 14.4882 8.40001 12.4999 8.40001V9.60001C13.8254 9.60001 14.8999 10.6745 14.8999 12H16.0999ZM12.4999 8.40001C10.5117 8.40001 8.89994 10.0118 8.89994 12H10.0999C10.0999 10.6745 11.1745 9.60001 12.4999 9.60001V8.40001Z" fill="white"/>
</svg>
