<svg width="362" height="332" viewBox="0 0 362 332" fill="none" xmlns="http://www.w3.org/2000/svg">
<g clip-path="url(#clip0_1_33219)">
<path fill-rule="evenodd" clip-rule="evenodd" d="M46.3868 138.014C40.8434 134.476 35.4574 131.039 30.3767 127.135C43.0041 135.789 55.2765 139.232 69.4977 139.232C89.0599 139.26 102.397 131.857 116.595 123.975C124.376 119.656 132.415 115.194 141.879 111.732C158.273 166.508 182.581 181.1 204.759 194.413C218.667 202.762 231.737 210.608 241.493 227.545C260.278 260.199 250.07 302.934 215.926 322.613C181.782 342.293 139.655 329.652 120.869 297.034C115.773 288.178 112.688 278.309 111.831 268.126C110.975 257.943 112.369 247.697 115.914 238.113C98.0221 170.971 70.6911 153.527 46.3868 138.014ZM149.833 217.378C159.011 211.255 169.796 207.991 180.827 208C195.622 208.04 209.797 213.948 220.246 224.427C230.694 234.907 236.564 249.104 236.567 263.906C236.549 274.942 233.26 285.725 227.117 294.892C220.975 304.059 212.253 311.198 202.056 315.406C191.859 319.615 180.643 320.704 169.827 318.536C159.011 316.369 149.081 311.041 141.29 303.228C133.5 295.414 128.2 285.465 126.06 274.639C123.92 263.812 125.036 252.594 129.268 242.402C133.499 232.21 140.656 223.502 149.833 217.378Z" fill="#D85202"/>
<path opacity="0.4" fill-rule="evenodd" clip-rule="evenodd" d="M180.827 208C169.796 207.991 159.011 211.255 149.833 217.378C140.656 223.502 133.499 232.21 129.268 242.402C125.036 252.594 123.92 263.812 126.06 274.639C128.2 285.465 133.5 295.414 141.29 303.228C149.081 311.041 159.011 316.369 169.827 318.536C180.643 320.704 191.859 319.615 202.056 315.406C212.253 311.198 220.975 304.059 227.117 294.892C233.26 285.725 236.549 274.942 236.567 263.906C236.564 249.104 230.694 234.907 220.246 224.427C209.797 213.948 195.622 208.04 180.827 208Z" fill="white"/>
<path fill-rule="evenodd" clip-rule="evenodd" d="M244.626 14.9786C257.51 8.27096 269.577 1.98864 285.323 0.579911C262.14 2.9501 243.152 15.7143 232.191 34.9802C222.505 51.9663 222.209 67.1878 221.893 83.3947C221.722 92.1608 221.545 101.215 219.875 110.993C164.052 97.6811 139.22 111.462 116.574 124.03C102.401 131.896 89.0846 139.286 69.563 139.261C31.8474 139.218 -0.0362477 109.021 0.0144647 69.5835C0.0651772 30.1456 32.0285 -0.0434427 69.7006 4.69278e-05C79.9143 0.00218866 90.0016 2.26021 99.2424 6.61293C108.483 10.9656 116.65 17.3057 123.159 25.1806C190.279 43.2727 219.061 28.2883 244.626 14.9786ZM38.8558 22.3869C48.0434 16.2566 58.8417 12.99 69.885 13C84.6825 13.0441 98.86 18.9513 109.315 29.4289C119.769 39.9064 125.65 54.101 125.669 68.906C125.66 79.9548 122.377 90.753 116.234 99.9349C110.092 109.117 101.366 116.27 91.1594 120.49C80.9533 124.71 69.7256 125.807 58.8963 123.643C48.0669 121.478 38.1224 116.149 30.3201 108.33C22.5179 100.511 17.2085 90.552 15.0634 79.7136C12.9183 68.8752 14.0338 57.6437 18.2688 47.4396C22.5038 37.2355 29.6681 28.5171 38.8558 22.3869Z" fill="#0F7492"/>
<path opacity="0.4" fill-rule="evenodd" clip-rule="evenodd" d="M69.885 13C58.8417 12.99 48.0434 16.2566 38.8558 22.3869C29.6681 28.5171 22.5038 37.2355 18.2688 47.4396C14.0338 57.6437 12.9183 68.8752 15.0634 79.7136C17.2085 90.552 22.5179 100.511 30.3201 108.33C38.1224 116.149 48.0669 121.478 58.8963 123.643C69.7256 125.807 80.9533 124.71 91.1594 120.49C101.366 116.27 110.092 109.117 116.234 99.9349C122.377 90.753 125.66 79.9548 125.669 68.906C125.65 54.101 119.769 39.9064 109.315 29.4289C98.86 18.9513 84.6825 13.0441 69.885 13Z" fill="white"/>
<path fill-rule="evenodd" clip-rule="evenodd" d="M252.168 248.843C251.747 258.477 251.344 267.707 249.179 277.022V277.007C253.048 258.995 250.114 242.564 241.457 227.552C231.695 210.609 218.65 202.76 204.751 194.398C197.245 189.882 189.491 185.216 181.869 178.887C220.905 137.442 221.389 109.153 221.831 83.3406C222.109 67.121 222.37 51.8793 232.169 34.9657C238.038 24.8234 246.371 16.3275 256.396 10.2655C266.421 4.20355 277.813 0.771593 289.516 0.287758C301.22 -0.196076 312.856 2.28388 323.347 7.49775C333.837 12.7116 342.842 20.4907 349.528 30.114C356.213 39.7373 360.362 50.8933 361.59 62.5482C362.818 74.203 361.086 85.9795 356.554 96.7861C352.021 107.593 344.836 117.08 335.663 124.368C326.49 131.656 315.626 136.509 304.079 138.478C254.842 187.588 253.426 220.021 252.168 248.843ZM262.86 22.3844C272.046 16.2557 282.843 12.99 293.885 13C308.688 13.0479 322.868 18.9614 333.323 29.4459C343.778 39.9305 349.655 54.1321 349.669 68.9422C349.653 79.9895 346.364 90.7841 340.217 99.9612C334.07 109.138 325.341 116.286 315.134 120.5C304.928 124.715 293.701 125.807 282.874 123.638C272.047 121.469 262.106 116.138 254.307 108.317C246.509 100.496 241.203 90.5377 239.061 79.7003C236.919 68.8629 238.036 57.6333 242.272 47.4313C246.508 37.2293 253.673 28.513 262.86 22.3844Z" fill="white"/>
<path opacity="0.4" fill-rule="evenodd" clip-rule="evenodd" d="M293.885 13C282.843 12.99 272.046 16.2557 262.86 22.3844C253.673 28.513 246.508 37.2293 242.272 47.4313C238.036 57.6333 236.919 68.8629 239.061 79.7003C241.203 90.5377 246.509 100.496 254.307 108.317C262.106 116.138 272.047 121.469 282.874 123.638C293.701 125.807 304.928 124.715 315.134 120.5C325.341 116.286 334.07 109.138 340.217 99.9612C346.364 90.7841 349.653 79.9895 349.669 68.9422C349.655 54.1321 343.778 39.9305 333.323 29.4459C322.868 18.9614 308.688 13.0479 293.885 13Z" fill="white"/>
<path d="M69.76 74.0176H69.865C72.115 74.0776 73.915 75.9076 73.915 78.1576C73.915 80.0776 72.61 81.6826 70.84 82.1626V83.8426C70.84 84.4426 70.36 84.9226 69.76 84.9226C69.16 84.9226 68.68 84.4426 68.68 83.8426V82.1626C67.7986 81.9256 67.0198 81.4049 66.464 80.681C65.9082 79.9571 65.6063 79.0702 65.605 78.1576C65.605 77.5576 66.085 77.0776 66.685 77.0776C67.285 77.0776 67.765 77.5576 67.765 78.1576C67.765 79.2676 68.65 80.1526 69.745 80.1526C70.84 80.1526 71.74 79.2526 71.74 78.1576C71.74 77.0626 70.84 76.1626 69.745 76.1626H69.64C68.5609 76.1333 67.5358 75.6845 66.7823 74.9114C66.0289 74.1384 65.6065 73.102 65.605 72.0226C65.605 70.1026 66.91 68.4976 68.68 68.0176V66.3376C68.68 65.7376 69.16 65.2576 69.76 65.2576C70.36 65.2576 70.84 65.7376 70.84 66.3376V68.0176C72.61 68.4976 73.915 70.1026 73.915 72.0226C73.915 72.6226 73.435 73.1026 72.835 73.1026C72.235 73.1026 71.755 72.6226 71.755 72.0226C71.755 70.9276 70.855 70.0276 69.76 70.0276C68.665 70.0276 67.765 70.9276 67.765 72.0226C67.765 73.1176 68.665 74.0176 69.76 74.0176Z" fill="white"/>
<path d="M61.798 52.65L65.977 57.54L65.5255 58.044C56.9245 59.973 50.5 67.6545 50.5 76.8375C50.5 84.9105 57.052 91.4625 65.125 91.4625H74.38C82.453 91.4625 89.005 84.912 89.005 76.839C89.02 67.6545 82.5955 59.973 73.9945 58.044C74.0295 57.7271 73.9722 57.4067 73.8295 57.1215L77.3845 53.052L77.614 52.698C77.882 52.1135 77.9505 51.4572 77.8091 50.8299C77.6677 50.2026 77.3241 49.6392 76.8312 49.2262C76.3383 48.8133 75.7234 48.5737 75.0811 48.5443C74.4388 48.5149 73.8045 48.6973 73.276 49.0635L72.0115 47.5635C71.7278 47.2461 71.3805 46.992 70.9921 46.8178C70.6036 46.6436 70.1829 46.5532 69.7572 46.5525C69.3315 46.5518 68.9104 46.6408 68.5214 46.8137C68.1324 46.9866 67.7842 47.2396 67.4995 47.556L66.175 49.035C65.6478 48.6612 65.0122 48.4715 64.3663 48.4953C63.7205 48.519 63.1005 48.7549 62.6022 49.1664C62.1039 49.578 61.7551 50.1422 61.6097 50.772C61.4644 51.4017 61.5305 52.0617 61.798 52.65ZM67.4965 54.7275L64.9525 51.7875C65.5435 52.0723 66.2123 52.1532 66.8541 52.0175C67.496 51.8818 68.0748 51.5372 68.5 51.0375L69.7 49.4805L71.032 51.0585C71.4473 51.5415 72.0076 51.8773 72.6293 52.016C73.251 52.1547 73.9008 52.0887 74.482 51.828L71.95 54.7275H67.4965ZM53.5 76.8375C53.5 67.8555 60.778 60.5775 69.76 60.5775C78.742 60.5775 86.02 67.8555 86.005 76.8345V76.8375C86.0038 79.9203 84.7786 82.8765 82.5988 85.0563C80.4189 87.2362 77.4628 88.4613 74.38 88.4625H65.125C62.0422 88.4613 59.0861 87.2362 56.9062 85.0563C54.7263 82.8765 53.5012 79.9203 53.5 76.8375Z" fill="white"/>
<path d="M165.044 65.624V74H163.364V68.552L161.12 74H159.848L157.592 68.552V74H155.912V65.624H157.82L160.484 71.852L163.148 65.624H165.044ZM170.593 74.084C169.809 74.084 169.089 73.9 168.433 73.532C167.777 73.164 167.257 72.656 166.873 72.008C166.489 71.352 166.297 70.612 166.297 69.788C166.297 68.972 166.489 68.24 166.873 67.592C167.257 66.936 167.777 66.424 168.433 66.056C169.089 65.688 169.809 65.504 170.593 65.504C171.385 65.504 172.105 65.688 172.753 66.056C173.409 66.424 173.925 66.936 174.301 67.592C174.685 68.24 174.877 68.972 174.877 69.788C174.877 70.612 174.685 71.352 174.301 72.008C173.925 72.656 173.409 73.164 172.753 73.532C172.097 73.9 171.377 74.084 170.593 74.084ZM170.593 72.584C171.097 72.584 171.541 72.472 171.925 72.248C172.309 72.016 172.609 71.688 172.825 71.264C173.041 70.84 173.149 70.348 173.149 69.788C173.149 69.228 173.041 68.74 172.825 68.324C172.609 67.9 172.309 67.576 171.925 67.352C171.541 67.128 171.097 67.016 170.593 67.016C170.089 67.016 169.641 67.128 169.249 67.352C168.865 67.576 168.565 67.9 168.349 68.324C168.133 68.74 168.025 69.228 168.025 69.788C168.025 70.348 168.133 70.84 168.349 71.264C168.565 71.688 168.865 72.016 169.249 72.248C169.641 72.472 170.089 72.584 170.593 72.584ZM183.291 74H181.611L177.807 68.252V74H176.127V65.612H177.807L181.611 71.372V65.612H183.291V74ZM186.631 66.98V69.08H189.451V70.412H186.631V72.632H189.811V74H184.951V65.612H189.811V66.98H186.631ZM197.998 65.624L195.166 71.084V74H193.486V71.084L190.642 65.624H192.538L194.338 69.452L196.126 65.624H197.998Z" fill="white"/>
<path d="M234.918 178.803L231.173 178.597L230.745 179.263L233.493 181.025L232.586 182.439L225.535 177.918L227.232 175.272C227.582 174.726 227.977 174.324 228.419 174.065C228.853 173.803 229.296 173.683 229.747 173.706C230.196 173.717 230.622 173.853 231.026 174.112C231.491 174.41 231.825 174.815 232.03 175.326C232.227 175.833 232.226 176.397 232.027 177.02L235.967 177.166L234.918 178.803ZM229.684 178.583L230.442 177.401C230.688 177.017 230.781 176.673 230.72 176.368C230.652 176.058 230.454 175.798 230.124 175.586C229.8 175.379 229.491 175.313 229.195 175.39C228.892 175.462 228.617 175.69 228.371 176.074L227.614 177.255L229.684 178.583ZM231.733 170.764L233.5 171.898L235.022 169.524L236.144 170.243L234.622 172.617L236.491 173.815L238.207 171.138L239.359 171.876L236.735 175.968L229.674 171.44L232.297 167.349L233.449 168.087L231.733 170.764ZM237.192 159.736L242.586 166.843L241.484 168.561L232.775 166.626L233.747 165.111L240.597 166.766L236.227 161.242L237.192 159.736ZM239.784 158.206L241.552 159.34L243.074 156.966L244.196 157.685L242.674 160.059L244.542 161.257L246.259 158.58L247.41 159.318L244.787 163.409L237.726 158.882L240.349 154.791L241.501 155.529L239.784 158.206ZM252.101 152.002L251.194 153.416L244.302 153.516L249.141 156.619L248.235 158.033L241.173 153.505L242.08 152.091L248.982 151.998L244.133 148.889L245.04 147.475L252.101 152.002ZM246.84 144.689L251.204 147.487C251.682 147.794 252.129 147.905 252.545 147.82C252.954 147.73 253.303 147.46 253.592 147.009C253.886 146.551 253.988 146.117 253.898 145.708C253.802 145.295 253.515 144.935 253.037 144.629L248.673 141.831L249.586 140.406L253.94 143.198C254.54 143.582 254.964 144.039 255.213 144.57C255.46 145.089 255.547 145.635 255.475 146.206C255.408 146.771 255.203 147.319 254.862 147.852C254.525 148.377 254.114 148.788 253.629 149.085C253.148 149.376 252.623 149.514 252.052 149.5C251.475 149.481 250.887 149.28 250.287 148.895L245.933 146.104L246.84 144.689ZM252.511 138.357L254.278 139.491L255.801 137.117L256.922 137.836L255.4 140.21L257.269 141.408L258.985 138.731L260.137 139.469L257.513 143.561L250.452 139.033L253.075 134.942L254.227 135.68L252.511 138.357Z" fill="black"/>
<path d="M125.98 156.61L124.839 157.342L122.954 154.403L121.145 155.562L122.59 157.815L121.469 158.534L120.024 156.281L117.044 158.192L116.137 156.778L123.188 152.256L125.98 156.61ZM127.517 159.007L123.153 161.805C122.675 162.112 122.388 162.472 122.292 162.885C122.202 163.294 122.302 163.724 122.592 164.175C122.885 164.633 123.237 164.907 123.646 164.996C124.061 165.081 124.508 164.971 124.986 164.664L129.35 161.866L130.263 163.29L125.91 166.082C125.31 166.466 124.718 166.661 124.132 166.666C123.557 166.674 123.025 166.525 122.535 166.222C122.05 165.924 121.637 165.51 121.296 164.978C120.959 164.453 120.757 163.907 120.689 163.343C120.626 162.784 120.72 162.249 120.971 161.737C121.228 161.22 121.657 160.769 122.256 160.385L126.61 157.593L127.517 159.007ZM134.217 169.455L133.075 170.187L131.87 168.308L125.961 172.097L125.054 170.683L130.963 166.894L129.759 165.015L130.9 164.283L134.217 169.455ZM135.772 171.881L131.408 174.679C130.93 174.985 130.643 175.345 130.547 175.759C130.457 176.168 130.557 176.598 130.847 177.049C131.14 177.507 131.492 177.78 131.901 177.87C132.316 177.955 132.763 177.844 133.241 177.538L137.605 174.739L138.519 176.164L134.165 178.955C133.566 179.34 132.973 179.534 132.387 179.54C131.812 179.547 131.28 179.399 130.79 179.095C130.305 178.798 129.892 178.383 129.551 177.851C129.214 177.326 129.012 176.781 128.944 176.216C128.881 175.658 128.975 175.123 129.226 174.61C129.484 174.093 129.912 173.642 130.512 173.258L134.865 170.466L135.772 171.881ZM134.676 185.688L136.426 182.37L135.998 181.704L133.251 183.466L132.344 182.051L139.395 177.53L141.092 180.177C141.442 180.722 141.642 181.249 141.693 181.758C141.751 182.263 141.675 182.716 141.466 183.116C141.268 183.518 140.967 183.849 140.563 184.108C140.098 184.406 139.591 184.542 139.041 184.514C138.498 184.482 137.985 184.246 137.502 183.804L135.725 187.324L134.676 185.688ZM137.059 181.023L137.817 182.205C138.063 182.589 138.338 182.817 138.64 182.889C138.95 182.957 139.27 182.885 139.6 182.673C139.923 182.466 140.111 182.212 140.166 181.911C140.227 181.606 140.134 181.261 139.888 180.877L139.13 179.696L137.059 181.023ZM143.31 186.147L141.542 187.281L143.064 189.655L141.943 190.374L140.421 188L138.552 189.198L140.269 191.875L139.117 192.614L136.494 188.523L143.555 183.995L146.178 188.086L145.026 188.824L143.31 186.147Z" fill="white"/>
<path d="M293.905 51.0834H296.5C296.832 51.0834 297.15 51.2151 297.384 51.4495C297.618 51.6839 297.75 52.0019 297.75 52.3334C297.75 52.6649 297.618 52.9828 297.384 53.2173C297.15 53.4517 296.832 53.5834 296.5 53.5834H294C290.037 53.5834 287.19 53.5867 285.023 53.8767C282.892 54.1634 281.607 54.71 280.657 55.6584C279.708 56.6084 279.163 57.8917 278.877 60.0234C278.587 62.19 278.583 65.0367 278.583 69C278.583 72.9634 278.587 75.81 278.877 77.9767C279.163 80.1084 279.71 81.3934 280.658 82.3434C281.608 83.2917 282.892 83.8367 285.023 84.1234C287.19 84.4134 290.037 84.4167 294 84.4167C297.963 84.4167 300.81 84.4134 302.977 84.1234C305.108 83.8367 306.393 83.29 307.343 82.3417C308.292 81.3917 308.837 80.1084 309.123 77.9767C309.413 75.81 309.417 72.9634 309.417 69V66.5C309.417 66.1685 309.548 65.8506 309.783 65.6162C310.017 65.3817 310.335 65.25 310.667 65.25C310.998 65.25 311.316 65.3817 311.551 65.6162C311.785 65.8506 311.917 66.1685 311.917 66.5V69.095C311.917 72.9434 311.917 75.9584 311.6 78.3117C311.277 80.7184 310.6 82.6184 309.11 84.11C307.618 85.6017 305.718 86.2767 303.31 86.6C300.958 86.9167 297.943 86.9167 294.095 86.9167H293.905C290.057 86.9167 287.042 86.9167 284.688 86.6C282.282 86.2767 280.382 85.6 278.89 84.11C277.398 82.6184 276.723 80.7184 276.4 78.31C276.083 75.9584 276.083 72.9434 276.083 69.095V68.905C276.083 65.0567 276.083 62.0417 276.4 59.6884C276.723 57.2817 277.4 55.3817 278.89 53.89C280.382 52.3984 282.282 51.7234 284.69 51.4C287.042 51.0834 290.057 51.0834 293.905 51.0834Z" fill="white"/>
<path fill-rule="evenodd" clip-rule="evenodd" d="M299.417 57.3334C299.417 55.6758 300.075 54.0861 301.247 52.914C302.419 51.7419 304.009 51.0834 305.667 51.0834C307.324 51.0834 308.914 51.7419 310.086 52.914C311.258 54.0861 311.917 55.6758 311.917 57.3334C311.917 58.991 311.258 60.5807 310.086 61.7528C308.914 62.9249 307.324 63.5834 305.667 63.5834C304.009 63.5834 302.419 62.9249 301.247 61.7528C300.075 60.5807 299.417 58.991 299.417 57.3334ZM305.667 53.5834C305.174 53.5834 304.687 53.6804 304.232 53.8688C303.777 54.0573 303.363 54.3335 303.015 54.6817C302.667 55.0299 302.391 55.4433 302.202 55.8983C302.014 56.3533 301.917 56.8409 301.917 57.3334C301.917 57.8258 302.014 58.3135 302.202 58.7684C302.391 59.2234 302.667 59.6368 303.015 59.985C303.363 60.3332 303.777 60.6095 304.232 60.7979C304.687 60.9864 305.174 61.0834 305.667 61.0834C306.661 61.0834 307.615 60.6883 308.318 59.985C309.022 59.2818 309.417 58.3279 309.417 57.3334C309.417 56.3388 309.022 55.385 308.318 54.6817C307.615 53.9785 306.661 53.5834 305.667 53.5834Z" fill="white"/>
<path d="M296.917 65.6666C296.917 66.3566 297.477 66.9166 298.167 66.9166H299.317L295.962 70.2716C295.923 70.3104 295.877 70.3412 295.826 70.3622C295.776 70.3832 295.721 70.394 295.667 70.394C295.612 70.394 295.558 70.3832 295.507 70.3622C295.456 70.3412 295.41 70.3104 295.372 70.2716L292.728 67.6283C292.181 67.0818 291.44 66.7747 290.667 66.7747C289.893 66.7747 289.152 67.0818 288.605 67.6283L284.783 71.45C284.661 71.5644 284.562 71.7024 284.494 71.8557C284.425 72.0091 284.389 72.1746 284.386 72.3424C284.383 72.5103 284.414 72.677 284.476 72.8326C284.539 72.9883 284.633 73.1297 284.752 73.2484C284.87 73.3671 285.012 73.4606 285.167 73.5235C285.323 73.5864 285.49 73.6172 285.658 73.6143C285.825 73.6113 285.991 73.5746 286.144 73.5063C286.298 73.4379 286.436 73.3394 286.55 73.2166L290.372 69.395C290.41 69.3562 290.456 69.3254 290.507 69.3044C290.558 69.2834 290.612 69.2725 290.667 69.2725C290.721 69.2725 290.776 69.2834 290.826 69.3044C290.877 69.3254 290.923 69.3562 290.962 69.395L293.605 72.0383C294.152 72.5848 294.893 72.8918 295.667 72.8918C296.44 72.8918 297.181 72.5848 297.728 72.0383L301.083 68.685V69.8333C301.083 70.1648 301.215 70.4828 301.449 70.7172C301.684 70.9516 302.002 71.0833 302.333 71.0833C302.665 71.0833 302.983 70.9516 303.217 70.7172C303.452 70.4828 303.583 70.1648 303.583 69.8333V65.6666C303.583 65.3351 303.452 65.0172 303.217 64.7827C302.983 64.5483 302.665 64.4166 302.333 64.4166H298.167C297.835 64.4166 297.517 64.5483 297.283 64.7827C297.048 65.0172 296.917 65.3351 296.917 65.6666Z" fill="white"/>
<path d="M183.667 279.127L192.767 273.873C193.74 273.312 194.225 273.032 194.578 272.64C194.891 272.293 195.127 271.884 195.272 271.44C195.433 270.938 195.433 270.378 195.433 269.262V258.738C195.433 257.622 195.433 257.062 195.27 256.56C195.125 256.116 194.889 255.707 194.577 255.36C194.227 254.97 193.743 254.69 192.778 254.133L183.667 248.873C182.695 248.312 182.21 248.032 181.693 247.923C181.236 247.826 180.764 247.826 180.307 247.923C179.79 248.032 179.305 248.312 178.333 248.873L169.23 254.128C168.26 254.688 167.775 254.968 167.423 255.36C167.111 255.707 166.874 256.116 166.73 256.56C166.567 257.063 166.567 257.623 166.567 258.745V269.253C166.567 270.375 166.567 270.937 166.73 271.438C166.874 271.883 167.111 272.291 167.423 272.638C167.775 273.032 168.262 273.312 169.232 273.872L178.332 279.127C179.305 279.688 179.79 279.968 180.307 280.077C180.763 280.175 181.237 280.175 181.693 280.077C182.21 279.968 182.695 279.688 183.667 279.127Z" stroke="white" stroke-width="2.5" stroke-linecap="round" stroke-linejoin="round"/>
<path d="M176 264C176 265.326 176.527 266.598 177.464 267.536C178.402 268.473 179.674 269 181 269C182.326 269 183.598 268.473 184.536 267.536C185.473 266.598 186 265.326 186 264C186 262.674 185.473 261.402 184.536 260.464C183.598 259.527 182.326 259 181 259C179.674 259 178.402 259.527 177.464 260.464C176.527 261.402 176 262.674 176 264Z" stroke="white" stroke-width="2.5" stroke-linecap="round" stroke-linejoin="round"/>
</g>
<defs>
<clipPath id="clip0_1_33219">
<rect width="362" height="332" fill="white"/>
</clipPath>
</defs>
</svg>
