<svg width="25" height="24" viewBox="0 0 25 24" fill="none" xmlns="http://www.w3.org/2000/svg">
<path d="M6.5 8H10.5" stroke="white" stroke-width="1.2" stroke-linecap="round" stroke-linejoin="round"/>
<path d="M21.333 9H18.731C16.946 9 15.5 10.343 15.5 12C15.5 13.657 16.947 15 18.73 15H21.333C21.417 15 21.458 15 21.493 14.998C22.033 14.965 22.463 14.566 22.498 14.065C22.5 14.033 22.5 13.994 22.5 13.917V10.083C22.5 10.006 22.5 9.967 22.498 9.935C22.462 9.434 22.033 9.035 21.493 9.002C21.459 9 21.417 9 21.333 9Z" stroke="white" stroke-width="1.2"/>
<path d="M21.465 9C21.387 7.128 21.137 5.98 20.328 5.172C19.157 4 17.271 4 13.5 4H10.5C6.729 4 4.843 4 3.672 5.172C2.5 6.343 2.5 8.229 2.5 12C2.5 15.771 2.5 17.657 3.672 18.828C4.843 20 6.729 20 10.5 20H13.5C17.271 20 19.157 20 20.328 18.828C21.137 18.02 21.388 16.872 21.465 15" stroke="white" stroke-width="1.2"/>
<path d="M18.491 12H18.501" stroke="white" stroke-width="2" stroke-linecap="round" stroke-linejoin="round"/>
</svg>
